<?xml version="1.0" standalone="no"?>
<!DOCTYPE svg PUBLIC "-//W3C//DTD SVG 20010904//EN"
 "http://www.w3.org/TR/2001/REC-SVG-20010904/DTD/svg10.dtd">
<svg version="1.0" xmlns="http://www.w3.org/2000/svg"
 width="300.000000pt" height="187.000000pt" viewBox="0 0 300.000000 187.000000"
 preserveAspectRatio="xMidYMid meet">
<metadata>
Created by potrace 1.10, written by Peter Selinger 2001-2011
</metadata>
<g transform="translate(0.000000,187.000000) scale(0.100000,-0.100000)"
fill="hsl(var(--error))" stroke="red">
<path d="M1731 1859 c-100 -12 -255 -66 -353 -125 -95 -57 -226 -181 -287
-271 -36 -55 -39 -63 -22 -63 12 0 35 23 64 63 51 71 150 168 219 215 73 50
204 109 293 133 115 31 306 31 430 1 409 -101 688 -457 688 -877 0 -420 -279
-775 -688 -877 -123 -30 -314 -30 -430 1 -89 24 -220 83 -293 133 -69 47 -168
144 -219 216 -29 39 -52 62 -64 62 -17 0 -14 -8 22 -62 61 -91 192 -215 287
-272 112 -67 252 -113 384 -127 476 -50 898 248 1015 717 12 49 17 110 17 209
0 151 -13 223 -61 344 -127 317 -418 543 -752 581 -98 11 -145 11 -250 -1z"/>
<path d="M676 1298 c-3 -9 -78 -548 -100 -713 0 -6 35 -11 85 -13 l86 -3 18
139 18 139 126 6 c149 6 217 27 273 84 48 49 68 99 68 169 0 83 -32 134 -107
171 -57 27 -62 28 -261 31 -161 3 -203 1 -206 -10z m448 -58 c57 -29 86 -75
86 -137 0 -57 -15 -91 -57 -135 -50 -52 -105 -67 -245 -70 -151 -4 -154 -6
-175 -144 -21 -138 -25 -146 -71 -142 l-37 3 3 45 c6 74 81 590 88 601 4 7 66
10 183 7 165 -3 180 -5 225 -28z"/>
<path d="M820 1203 c-25 -23 -32 -40 -40 -98 -14 -100 -13 -119 10 -143 18
-19 31 -22 106 -22 100 0 142 16 181 67 19 24 28 50 31 89 4 52 3 56 -31 88
-40 37 -71 46 -163 46 -55 0 -68 -4 -94 -27z m193 -24 c48 -13 71 -47 62 -91
-19 -84 -60 -108 -185 -108 -82 0 -91 2 -86 18 3 9 10 53 16 97 7 44 14 83 17
88 6 11 132 8 176 -4z"/>
<path d="M1390 1303 c0 -6 -22 -171 -50 -368 -27 -197 -50 -360 -50 -362 0 -1
86 -3 191 -3 219 0 304 14 368 60 55 40 75 82 76 155 0 76 -26 116 -91 141
l-45 17 50 24 c157 75 161 251 6 319 -33 15 -78 19 -247 22 -127 2 -208 0
-208 -5z m392 -44 c70 -15 104 -36 124 -77 31 -66 9 -109 -102 -199 -46 -37
-42 -51 23 -96 47 -31 66 -74 57 -126 -21 -113 -117 -151 -386 -151 -121 0
-150 3 -154 15 -8 19 76 617 88 633 13 16 275 17 350 1z"/>
<path d="M1565 1231 c-35 -15 -55 -46 -65 -101 -17 -92 -13 -126 18 -150 24
-20 36 -22 108 -18 61 3 89 10 117 27 96 59 103 181 14 227 -34 18 -163 28
-192 15z m196 -59 c42 -35 25 -112 -34 -147 -34 -20 -190 -35 -199 -19 -4 7
12 137 21 182 1 1 43 2 95 2 76 0 98 -3 117 -18z"/>
<path d="M1523 923 c-35 -7 -60 -47 -67 -110 -4 -32 -9 -70 -12 -85 -3 -18 3
-36 20 -55 23 -27 28 -28 109 -27 108 1 163 29 197 99 52 108 -24 186 -180
183 -25 0 -55 -3 -67 -5z m201 -64 c39 -30 36 -79 -8 -126 -33 -37 -34 -37
-131 -43 -53 -3 -99 -2 -101 2 -3 4 1 48 8 97 l12 91 96 0 c83 0 101 -3 124
-21z"/>
<path d="M2217 1044 c-21 -147 -44 -279 -52 -294 -19 -37 -62 -53 -117 -45
l-44 7 -12 -52 c-18 -76 -17 -77 38 -89 70 -15 127 -14 186 4 53 16 81 40 108
93 16 32 107 628 97 637 -2 3 -41 5 -85 5 l-81 0 -38 -266z m155 214 c6 -15
-58 -486 -73 -542 -19 -72 -87 -116 -181 -116 -94 0 -122 49 -35 62 110 15
126 48 167 339 17 123 35 234 40 247 7 17 18 22 44 22 18 0 36 -6 38 -12z"/>
</g>
</svg>
